<?xml version="1.0" standalone="no"?>
<!DOCTYPE svg PUBLIC "-//W3C//DTD SVG 20010904//EN"
 "http://www.w3.org/TR/2001/REC-SVG-20010904/DTD/svg10.dtd">
<svg version="1.0" xmlns="http://www.w3.org/2000/svg"
 width="1392.000000pt" height="1392.000000pt" viewBox="0 0 1392.000000 1392.000000"
 preserveAspectRatio="xMidYMid meet">
<metadata>
Created by potrace 1.14, written by Peter Selinger 2001-2017
</metadata>
<g transform="translate(0.000000,1392.000000) scale(0.100000,-0.100000)"
fill="#000000" stroke="none">
<path d="M11129 9906 c-2 -2 -35 -7 -74 -11 -38 -4 -81 -8 -95 -10 -14 -2 -47
-7 -73 -10 -27 -3 -99 -17 -160 -31 -62 -13 -123 -27 -137 -30 -134 -29 -442
-152 -600 -240 -130 -71 -333 -210 -396 -269 -6 -5 -44 -39 -83 -74 -259 -230
-458 -510 -631 -886 -33 -72 -96 -238 -106 -280 -4 -16 -10 -34 -14 -40 -7 -9
-35 -117 -32 -122 1 -2 -5 -21 -13 -43 -8 -22 -14 -43 -14 -45 1 -3 -6 -38
-15 -78 -8 -39 -18 -90 -21 -112 -6 -47 -13 -88 -20 -130 -3 -16 -7 -50 -9
-75 -2 -25 -8 -88 -12 -140 -10 -111 -10 -571 0 -680 10 -118 34 -297 50 -382
2 -7 6 -31 10 -53 121 -634 464 -1221 926 -1587 93 -73 225 -168 235 -168 2 0
28 -15 58 -34 43 -28 280 -149 297 -152 3 0 19 -6 35 -13 79 -34 305 -107 358
-117 17 -3 33 -7 37 -9 6 -4 50 -13 95 -20 11 -2 45 -9 75 -15 30 -6 71 -13
90 -15 19 -2 51 -6 70 -9 95 -14 224 -21 415 -21 187 0 399 10 415 20 3 2 32
6 64 10 70 7 229 39 306 60 30 8 64 17 76 20 87 20 311 108 445 175 203 103
403 246 558 401 79 79 153 159 147 159 -3 0 9 15 25 33 29 31 150 201 158 222
2 5 12 21 22 35 33 48 126 241 127 264 0 5 4 12 9 15 7 5 39 83 47 116 2 6 6
17 9 25 11 29 45 145 53 180 11 52 11 51 23 100 12 54 31 168 37 230 2 25 7
61 11 80 3 19 8 269 10 555 l5 520 -1241 0 c-834 0 -1241 -3 -1242 -10 -4 -52
-3 -145 2 -145 4 0 4 -15 0 -32 -5 -29 -6 -214 -1 -228 1 -3 1 -9 0 -15 -7
-28 -4 -205 3 -205 5 0 5 -5 1 -11 -5 -9 -8 -220 -5 -341 l1 -28 570 0 570 0
-6 -82 c-3 -45 -7 -85 -10 -89 -2 -4 -6 -24 -10 -45 -15 -97 -74 -237 -146
-344 -51 -75 -150 -176 -216 -217 -15 -10 -29 -20 -32 -23 -3 -3 -41 -24 -85
-46 -133 -69 -258 -106 -445 -131 -70 -10 -387 -9 -460 1 -71 10 -94 14 -97
16 -2 2 -11 3 -20 5 -10 1 -25 4 -33 7 -8 3 -49 16 -90 29 -118 37 -280 127
-373 207 -63 54 -148 149 -201 222 -51 71 -140 231 -163 295 -44 119 -58 161
-80 245 -14 52 -27 109 -30 125 -10 64 -11 70 -13 70 -1 0 -3 14 -4 30 -2 17
-6 48 -9 70 -17 108 -21 199 -21 410 0 256 6 336 40 525 9 47 17 90 18 95 14
54 43 158 54 185 3 8 6 17 7 20 5 21 21 62 38 100 11 25 21 47 22 50 9 38 123
227 176 295 84 106 323 305 366 305 7 0 13 5 13 10 0 6 7 10 15 10 8 0 30 9
50 20 19 11 35 17 35 14 0 -4 6 -2 13 4 24 20 191 65 292 79 77 10 363 10 435
-1 95 -14 234 -54 312 -89 132 -60 217 -124 334 -250 56 -62 140 -216 174
-319 l21 -65 697 0 c423 -1 699 3 703 9 5 8 1 43 -16 138 -22 125 -79 315
-124 415 -15 33 -36 81 -47 107 -10 27 -22 48 -26 48 -5 0 -8 4 -8 9 0 8 -37
75 -85 152 -99 161 -318 401 -481 526 -114 88 -240 171 -357 233 -91 49 -288
138 -317 144 -15 3 -38 11 -77 26 -28 12 -219 66 -258 74 -172 35 -191 39
-210 41 -11 1 -40 5 -65 8 -25 4 -63 10 -85 13 -47 6 -560 15 -566 10z"/>
<path d="M27 9792 l-27 -3 0 -698 0 -697 668 1 c367 0 674 -1 683 -3 14 -3 15
-207 15 -2103 -1 -1155 2 -2109 7 -2121 6 -16 10 -18 21 -9 8 7 16 8 19 4 6
-9 277 -9 301 0 9 4 16 3 16 -1 0 -4 54 -7 120 -7 66 0 120 4 120 8 0 5 5 5
10 2 16 -10 120 -12 120 -2 0 4 5 5 11 1 16 -9 240 -11 246 -1 2 4 9 4 15 1
16 -10 78 -10 78 -1 0 5 5 5 11 1 16 -9 138 -11 132 -2 -2 5 6 4 19 0 30 -10
211 -8 228 3 9 5 11 4 6 -3 -8 -13 25 -4 34 9 3 4 5 954 4 2111 0 1156 3 2105
7 2108 4 3 138 5 298 4 160 0 291 2 291 5 0 4 -12 15 -27 26 -14 11 -31 25
-37 30 -6 6 -31 28 -56 49 -190 166 -452 421 -580 566 -36 40 -75 84 -87 96
-13 13 -23 25 -23 27 0 3 -14 20 -31 38 -43 46 -211 255 -285 354 -32 44 -61
82 -64 85 -3 3 -22 31 -44 63 -26 39 -45 57 -60 57 -129 3 -2138 4 -2159 2z"/>
<path d="M3133 9792 l-62 -3 60 -95 c32 -52 59 -97 59 -100 0 -12 298 -442
357 -514 6 -8 33 -42 60 -75 185 -233 447 -507 663 -695 129 -112 197 -168
280 -230 18 -14 39 -31 46 -37 7 -7 16 -13 19 -13 4 0 25 -15 48 -34 65 -52
349 -236 477 -308 248 -141 535 -277 780 -368 47 -18 94 -36 105 -40 106 -44
515 -168 645 -196 14 -3 41 -9 60 -14 63 -16 91 -19 84 -9 -3 6 -8 8 -11 5 -5
-4 -24 1 -98 30 -11 4 -22 8 -25 9 -3 0 -32 11 -65 24 -33 13 -64 24 -70 25
-5 1 -28 10 -50 20 -22 9 -57 23 -77 29 -21 7 -38 15 -38 19 0 5 -8 8 -18 8
-10 0 -22 3 -26 8 -4 4 -11 7 -14 8 -4 0 -27 10 -52 21 -25 11 -67 30 -95 42
-27 13 -57 27 -65 32 -8 5 -26 14 -40 19 -56 23 -324 163 -420 220 -28 16 -55
30 -60 30 -6 0 -10 4 -10 9 0 5 -8 12 -17 15 -25 9 -55 28 -247 155 -71 47
-136 91 -145 96 -9 6 -18 12 -21 15 -3 3 -61 47 -130 99 -69 52 -127 97 -130
101 -3 3 -30 25 -60 50 -30 25 -65 54 -76 65 -12 11 -55 49 -95 85 -245 218
-507 509 -727 805 -61 83 -117 157 -124 166 -7 9 -20 27 -28 42 -8 14 -44 71
-80 126 -89 139 -150 241 -150 252 0 5 -3 9 -8 9 -4 0 -16 20 -27 45 -16 36
-25 45 -45 45 -163 4 -286 4 -337 2z"/>
<path d="M4303 9792 l-52 -3 15 -37 c22 -54 198 -407 235 -472 17 -30 41 -73
52 -95 12 -22 24 -42 27 -45 11 -11 70 -112 70 -120 0 -5 3 -10 8 -12 8 -3 72
-96 72 -104 0 -3 6 -12 13 -19 15 -18 28 -35 45 -61 57 -88 145 -204 154 -204
4 0 8 -4 8 -10 0 -9 9 -21 54 -73 10 -12 30 -37 45 -56 14 -19 35 -44 46 -56
11 -11 54 -59 95 -105 179 -200 425 -432 653 -611 61 -49 123 -98 135 -109 13
-11 26 -20 29 -20 2 0 24 -16 47 -35 24 -19 48 -35 54 -35 6 0 12 -4 14 -9 3
-8 335 -231 344 -231 3 0 25 -13 49 -30 24 -16 47 -30 50 -30 4 0 19 -8 33
-18 33 -23 149 -88 142 -79 -10 11 -173 117 -180 117 -5 0 -10 3 -12 8 -1 4
-23 20 -48 37 -25 16 -47 32 -50 35 -3 3 -18 14 -33 23 -16 10 -36 25 -45 32
-9 8 -46 36 -82 62 -36 26 -72 54 -80 61 -36 31 -67 56 -100 81 -19 14 -44 35
-56 46 -11 11 -44 40 -74 65 -106 89 -362 351 -465 474 -22 27 -44 54 -50 60
-27 31 -125 157 -155 201 -19 28 -38 52 -41 55 -20 17 -185 279 -256 405 -57
102 -163 317 -163 332 0 7 -5 13 -10 13 -6 0 -9 3 -8 8 1 4 -5 23 -14 42 -8
19 -34 85 -58 145 -23 61 -46 119 -51 130 -4 11 -24 71 -44 133 -21 61 -42
112 -49 112 -75 3 -273 4 -313 2z"/>
<path d="M5283 9792 c-37 -4 -37 -3 -23 -69 5 -26 11 -61 14 -78 2 -16 12 -64
21 -105 10 -41 19 -82 20 -90 1 -8 4 -22 7 -30 3 -8 13 -44 23 -80 18 -73 91
-299 110 -345 7 -16 23 -56 35 -87 12 -32 24 -58 25 -58 2 0 3 62 2 139 0 76
3 143 7 150 4 6 4 11 -1 11 -10 0 -9 453 1 469 4 6 4 11 -1 11 -4 0 -7 36 -6
80 l1 80 -36 1 c-21 0 -66 1 -102 2 -36 1 -80 1 -97 -1z"/>
<path d="M6825 9765 c-13 -16 -49 -73 -81 -125 -32 -52 -60 -97 -63 -100 -11
-9 -71 -111 -71 -120 0 -5 -4 -10 -8 -12 -5 -1 -39 -52 -76 -113 -94 -153
-204 -328 -213 -341 -4 -5 -13 -19 -20 -30 -6 -10 -41 -66 -78 -124 -36 -58
-72 -114 -78 -124 -7 -11 -63 -100 -124 -198 -62 -98 -113 -183 -113 -188 0
-6 -3 -10 -8 -10 -4 0 -16 -15 -26 -34 -15 -29 -16 -37 -4 -55 7 -11 16 -21
20 -21 5 0 8 -5 8 -10 0 -10 155 -237 170 -250 3 -3 16 -18 28 -35 139 -185
385 -461 576 -644 32 -31 84 -80 114 -109 55 -53 76 -59 90 -25 4 10 23 43 43
73 66 102 145 224 208 325 34 55 93 149 132 208 38 60 69 111 69 113 0 3 5 10
11 17 20 23 99 149 99 158 0 5 4 9 9 9 5 0 11 8 15 18 5 17 26 52 36 62 3 3
10 14 16 25 17 30 370 584 436 683 15 24 28 45 28 47 0 2 26 43 58 92 83 128
81 127 89 143 4 8 15 24 25 34 10 11 18 24 18 28 0 5 5 14 10 21 6 7 25 35 43
63 130 209 244 388 255 400 6 6 17 25 26 42 9 17 30 52 47 77 17 25 29 48 26
51 -3 3 -391 6 -862 7 l-858 2 -22 -30z"/>
<path d="M4010 6092 c0 -1406 3 -1923 11 -1928 16 -9 250 -11 256 -1 2 4 9 4
15 1 16 -10 78 -10 78 -1 0 5 5 5 11 1 16 -9 138 -11 132 -2 -2 5 6 4 19 0 30
-10 211 -8 228 3 7 5 11 4 8 -1 -4 -5 14 -9 38 -9 24 0 44 4 44 8 0 5 5 5 10
2 16 -10 120 -12 120 -2 0 4 5 5 12 1 14 -9 232 -9 247 0 6 4 11 4 11 -1 0 -9
243 -9 258 1 6 4 10 65 9 164 0 87 3 164 7 170 4 7 4 12 -1 12 -4 0 -8 167 -8
370 0 204 3 370 7 370 4 0 5 7 2 15 -10 24 -10 305 -1 305 5 0 5 5 2 11 -9 14
-10 343 -1 357 4 7 4 12 -1 12 -10 0 -9 328 1 337 4 4 9 -3 13 -15 3 -12 10
-22 15 -22 5 0 14 -13 19 -30 6 -16 14 -30 18 -30 4 0 16 -16 27 -35 10 -19
21 -35 25 -35 4 0 12 -13 19 -30 7 -16 16 -30 20 -30 4 0 10 -8 14 -17 3 -10
21 -38 40 -63 19 -25 35 -49 36 -55 0 -5 14 -26 30 -45 17 -19 30 -40 30 -47
0 -6 6 -16 13 -20 6 -4 17 -16 22 -25 18 -32 449 -673 456 -678 3 -3 12 -16
19 -29 7 -14 17 -30 22 -35 5 -6 80 -117 166 -246 356 -530 424 -630 434 -636
15 -9 182 -9 197 0 6 4 11 4 11 -1 0 -9 280 -9 304 0 9 4 16 3 16 -1 0 -4 54
-7 120 -7 66 0 120 4 120 8 0 5 5 5 10 2 16 -10 120 -12 120 -2 0 4 5 5 11 1
16 -9 240 -11 246 -1 2 4 9 4 15 1 16 -10 78 -10 78 -1 0 5 5 5 11 1 16 -9
138 -11 132 -2 -2 5 6 4 19 0 30 -10 211 -8 228 3 7 5 11 4 8 -1 -4 -5 33 -8
85 -8 51 1 91 5 90 10 -2 14 -176 269 -185 272 -4 2 -8 8 -8 14 0 11 -61 101
-72 106 -5 2 -8 8 -8 13 0 9 -37 67 -51 79 -3 3 -43 61 -89 130 -87 130 -216
321 -305 450 -28 41 -89 131 -136 200 -46 69 -87 127 -91 128 -5 2 -8 9 -8 15
0 7 -11 25 -25 41 -14 16 -25 33 -25 37 0 4 -6 14 -12 21 -22 22 -118 167
-118 177 0 5 -7 12 -16 15 -8 3 -13 10 -10 15 4 5 2 11 -2 13 -5 1 -38 46 -73
98 -35 52 -67 100 -71 105 -20 26 -119 172 -125 185 -4 8 -9 17 -12 20 -4 3
-29 39 -57 80 -28 41 -104 154 -170 250 -311 459 -276 413 -320 416 -38 3
-183 21 -234 29 -14 2 -45 7 -70 10 -58 8 -189 31 -260 45 -30 7 -70 13 -88
15 -18 2 -36 6 -40 9 -5 3 -23 8 -41 11 -17 3 -60 12 -94 21 -34 8 -80 19
-102 24 -22 5 -55 14 -73 19 -18 5 -33 10 -35 10 -1 0 -9 2 -17 5 -8 3 -51 14
-95 26 -119 32 -476 153 -562 190 -13 6 -33 14 -45 19 -92 36 -219 92 -328
144 -47 23 -87 41 -90 42 -22 2 -456 249 -587 333 l-23 14 0 -1920z"/>
</g>
</svg>
