<?xml version="1.0" encoding="UTF-8"?><svg id="b" xmlns="http://www.w3.org/2000/svg" xmlns:xlink="http://www.w3.org/1999/xlink" viewBox="0 0 348.28 147.94"><defs><linearGradient id="d" x1="282.06" y1="146.97" x2="281.09" y2="-235.81" gradientTransform="translate(0 149.94) scale(1 -1)" gradientUnits="userSpaceOnUse"><stop offset="0" stop-color="#1273eb"/><stop offset="1" stop-color="#060d26"/></linearGradient><linearGradient id="e" x1="160.17" y1="102.47" x2="160.17" y2="-139.75" gradientTransform="translate(0 149.94) scale(1 -1)" gradientUnits="userSpaceOnUse"><stop offset="0" stop-color="#1273eb"/><stop offset="1" stop-color="#050d28"/></linearGradient><linearGradient id="f" x1="40.16" y1="146.61" x2="73.87" y2="-186.59" xlink:href="#d"/></defs><g id="c"><path d="M311.51,49.01c-.8-2.95-1.97-5.56-3.52-7.81-1.55-2.3-3.45-4.24-5.7-5.84-2.25-1.59-4.83-2.79-7.73-3.59-2.91-.84-6.09-1.26-9.56-1.26-6.98,0-13.03,1.69-18.14,5.06-5.06,3.38-8.98,8.3-11.74,14.77-2.77,6.42-4.15,14.23-4.15,23.41s1.34,17.11,4.01,23.62,6.54,11.48,11.6,14.91c5.06,3.42,11.2,5.13,18.42,5.13,6.38,0,11.77-1.03,16.17-3.09,4.45-2.11,7.83-5.09,10.12-8.93,2.3-3.84,3.45-8.37,3.45-13.57l6.47,.77h-35.02v-25.38h62.09v19.05c0,12.89-2.74,23.93-8.23,33.12-5.44,9.19-12.94,16.24-22.5,21.16-9.52,4.92-20.46,7.38-32.84,7.38-13.73,0-25.8-2.98-36.21-8.93s-18.52-14.44-24.33-25.45c-5.81-11.06-8.72-24.19-8.72-39.38,0-11.81,1.76-22.29,5.27-31.43,3.52-9.19,8.41-16.97,14.7-23.34,6.33-6.38,13.64-11.2,21.94-14.48,8.34-3.28,17.32-4.92,26.93-4.92,8.34,0,16.1,1.2,23.27,3.59,7.22,2.39,13.59,5.77,19.12,10.12,5.58,4.36,10.1,9.54,13.57,15.54s5.62,12.59,6.47,19.76h-35.23Z" style="fill:url(#d);"/><path d="M138.07,26.84V2.97h-6.73c1.2,8.22,3.46,16.24,6.73,23.88h0Z" style="fill:#050d28;"/><path d="M87.28,2.97h-10.4c19.31,33.55,49.21,58.82,94.08,68.72l.06-.1C130.93,58.1,104.21,33.71,87.28,2.97Z" style="fill:#050d28;"/><path d="M106.36,2.97c11.6,27.39,32.16,51.06,64.75,68.49l.02-.04C141.06,53.51,123.79,29.87,115.82,2.97h-9.46Z" style="fill:#050d28;"/><path d="M171.12,2.97l-24.8,39.44c6.24,9.79,14.47,19.42,24.92,28.84L214.61,2.97h-43.49Z" style="fill:#1273eb;"/><path d="M100.33,47.47v96.5h37.74v-53.62l36.06,53.62h45.87l-48.98-72.15c-27.72-2.87-51.05-11.53-70.69-24.35Z" style="fill:url(#e);"/><path d="M55.14,2.97H0V37.96H34.2v106.01h37.92V37.96h15.21c-12.33-10.06-22.99-21.9-32.2-34.99Z" style="fill:url(#f);"/></g></svg>